<?xml version="1.0" standalone="no"?>
<!DOCTYPE svg PUBLIC "-//W3C//DTD SVG 20010904//EN"
 "http://www.w3.org/TR/2001/REC-SVG-20010904/DTD/svg10.dtd">
<svg version="1.0" xmlns="http://www.w3.org/2000/svg"
 width="631.000000pt" height="116.000000pt" viewBox="0 0 631.000000 116.000000"
 preserveAspectRatio="xMidYMid meet">
<metadata>
Created by potrace 1.13, written by Peter Selinger 2001-2015
</metadata>
<g transform="translate(0.000000,116.000000) scale(0.100000,-0.100000)"
fill="#000000" stroke="none">
<path d="M2542 1140 c-117 -17 -122 -19 -122 -45 0 -22 4 -25 38 -25 21 0 47
-6 58 -14 18 -14 19 -34 24 -508 l5 -493 313 -3 313 -2 14 33 c20 47 49 211
42 230 -14 36 -43 18 -72 -43 -31 -66 -65 -103 -108 -119 -16 -6 -96 -11 -178
-11 l-149 0 0 489 c0 269 -3 496 -6 505 -7 18 -75 20 -172 6z"/>
<path d="M0 590 c0 -330 3 -420 13 -420 6 1 33 29 58 63 26 34 92 121 148 194
l101 132 -29 17 c-17 10 -28 22 -25 26 9 14 -16 38 -39 38 -11 0 -17 3 -14 7
4 3 2 12 -4 20 -13 15 0 38 51 96 23 27 35 33 55 29 14 -2 25 -10 25 -17 0
-12 23 -27 46 -29 6 -1 18 -8 27 -16 9 -8 41 -33 71 -55 30 -22 57 -48 60 -58
2 -10 14 -21 25 -24 12 -3 21 -12 21 -19 0 -8 5 -14 10 -14 6 0 10 -7 10 -15
0 -40 67 3 105 68 13 24 29 66 35 94 23 104 -37 222 -139 275 l-53 28 -279 0
-279 0 0 -420z"/>
<path d="M3571 833 c-31 -4 -33 -6 -27 -36 5 -25 -20 -94 -139 -378 -79 -192
-146 -354 -147 -360 -4 -16 25 -23 57 -15 18 5 29 23 53 88 17 46 40 109 52
141 l22 58 140 -3 141 -3 49 -130 c27 -72 55 -136 63 -143 18 -19 121 -3 117
19 -6 27 -285 744 -295 757 -9 12 -21 13 -86 5z m72 -300 l55 -143 -114 0
c-63 0 -114 3 -114 8 0 20 106 290 112 284 4 -4 31 -71 61 -149z"/>
<path d="M5092 833 c-32 -4 -34 -6 -28 -37 5 -27 -19 -93 -139 -381 -80 -192
-145 -355 -145 -362 0 -17 55 -17 72 0 7 8 35 73 62 146 l48 132 141 -3 141
-3 51 -132 c27 -73 55 -137 62 -144 16 -16 119 2 115 22 -5 26 -285 744 -295
757 -9 12 -21 13 -85 5z m69 -291 l56 -147 -110 -3 c-60 -1 -112 -1 -114 2 -6
5 100 296 107 296 3 0 30 -67 61 -148z"/>
<path d="M1272 820 c-125 -14 -142 -19 -142 -40 0 -15 7 -20 28 -20 15 0 33
-5 40 -12 9 -9 12 -100 12 -349 0 -186 4 -340 9 -343 21 -13 279 -18 336 -6
228 47 362 220 342 441 -15 168 -104 269 -274 314 -71 19 -252 27 -351 15z
m303 -79 c71 -31 110 -67 146 -134 33 -60 34 -66 34 -172 0 -135 -21 -192 -97
-260 -64 -57 -128 -77 -235 -73 l-78 3 -3 324 c-2 253 1 327 10 333 22 15 174
1 223 -21z"/>
<path d="M4346 819 c-144 -24 -258 -105 -312 -221 -26 -57 -29 -73 -29 -168 1
-135 25 -201 99 -275 92 -91 216 -131 381 -121 55 3 120 11 145 19 l45 13 3
166 c2 127 0 167 -10 170 -7 2 -52 2 -100 0 -75 -3 -88 -6 -88 -21 0 -10 12
-20 33 -26 l32 -10 3 -124 3 -123 -93 4 c-110 5 -172 31 -232 98 -60 66 -79
120 -84 231 -7 158 39 258 140 310 50 26 167 36 226 20 54 -15 107 -62 122
-107 19 -57 35 -35 38 54 3 95 4 94 -105 111 -81 12 -145 13 -217 0z"/>
<path d="M5823 815 c-127 -28 -221 -103 -265 -214 -19 -48 -23 -74 -23 -181 0
-116 2 -129 28 -186 35 -76 94 -135 172 -171 54 -25 70 -28 165 -27 84 0 116
4 161 22 170 67 245 196 237 405 -3 85 -8 112 -31 162 -76 163 -241 234 -444
190z m203 -80 c89 -52 138 -167 137 -325 -1 -157 -43 -248 -136 -295 -127 -63
-255 -8 -324 140 -26 56 -28 68 -28 195 0 127 2 138 27 185 52 98 120 139 221
131 38 -3 72 -13 103 -31z"/>
<path d="M890 815 c-8 -2 -32 -6 -52 -10 -29 -4 -38 -11 -38 -25 0 -15 7 -20
28 -20 15 0 33 -5 40 -12 9 -9 12 -102 12 -355 0 -279 3 -345 13 -349 8 -3 36
-1 63 3 l49 8 0 380 0 380 -50 2 c-27 0 -57 0 -65 -2z"/>
<path d="M588 470 c-31 -45 -70 -54 -88 -20 -6 11 -18 20 -28 20 -9 0 -26 7
-36 15 -11 8 -26 15 -32 15 -7 0 -78 -84 -158 -187 -79 -104 -160 -208 -180
-233 -62 -78 -73 -75 246 -72 299 3 317 6 379 53 104 81 125 248 46 362 -21
31 -93 87 -111 87 -6 -1 -23 -19 -38 -40z"/>
</g>
</svg>
